<?xml version="1.0" encoding="utf-8"?>
<!-- Generator: Adobe Illustrator 18.0.0, SVG Export Plug-In . SVG Version: 6.00 Build 0)  -->
<!DOCTYPE svg PUBLIC "-//W3C//DTD SVG 1.1//EN" "http://www.w3.org/Graphics/SVG/1.1/DTD/svg11.dtd">
<svg version="1.1" id="Layer_1" xmlns="http://www.w3.org/2000/svg" xmlns:xlink="http://www.w3.org/1999/xlink" x="0px" y="0px"
	 viewBox="90 0 612 612" enable-background="new 90 0 612 612" xml:space="preserve">
<g>
	<path fill="#F63C3C" d="M90,0h612v612H90V0z"/>
	<g>
		<path fill="#FFFFFF" d="M335.7,245.7c-0.9,0.9-2.6,1.7-6.1,1.7h-10.5c-3.5,0-5.2-0.9-6.1-1.7c-0.9-0.9-1.7-2.6-1.7-6.1v-20.1
			h-23.6v23.6c0,14.9,7.9,22.7,24.5,22.7h25.4c16.6,0,24.5-7.9,24.5-22.7v-46.3c0-14.9-7.9-22.7-23.6-22.7h-19.2
			c-3.5,0-5.2-0.9-6.1-1.7c-0.9-0.9-1.7-2.6-1.7-6.1v-35.8c0-3.5,0.9-5.2,1.7-6.1c0.9-0.9,3.5-1.7,6.1-1.7h10.5
			c3.5,0,5.2,0.9,6.1,1.7c0.9,0.9,1.7,2.6,1.7,6.1v20.1H361v-23.6c0-14.9-7.9-22.7-24.5-22.7h-25.4c-15.7,0-24.5,7.9-24.5,22.7v42.8
			c0,15.7,7.9,22.7,23.6,22.7h19.2c3.5,0,5.2,0.9,6.1,1.7s1.7,2.6,1.7,6.1v39.3C336.5,243.1,336.5,244.8,335.7,245.7z"/>
		<path fill="#FFFFFF" d="M458.1,124.1l14.9,85.7h-28L458.1,124.1z M506.2,266.7L474.7,104h-34.1l-28.9,162.6h23.6l6.1-37.6h34.1
			l6.1,37.6H506.2z"/>
		<path fill="#FFFFFF" d="M361.9,321.7c0-14.9-7.9-22.7-24.5-22.7h-28c-15.7,0-24.5,7.9-24.5,22.7v117.2c0,15.7,7.9,22.7,24.5,22.7
			h28c15.7,0,24.5-7.9,24.5-22.7v-61.2h-36.7v18.4h13.1v39.3c0,3.5-0.9,5.2-1.7,6.1c-0.9,0.9-3.5,1.7-6.1,1.7h-13.1
			c-3.5,0-5.2-0.9-6.1-1.7c-0.9-0.9-1.7-2.6-1.7-6.1v-111c0-3.5,0.9-5.2,1.7-6.1c0.9-0.9,3.5-1.7,6.1-1.7h13.1
			c3.5,0,5.2,0.9,6.1,1.7c0.9,0.9,1.7,2.6,1.7,6.1v21.9h23.6V321.7L361.9,321.7z"/>
		<path fill="#FFFFFF" d="M448.5,386.4h37.6v-19.2h-37.6v-49.8h45.5v-19.2h-69.1v162.6h70.8v-19.2h-47.2V386.4z"/>
		<path fill="#FFFFFF" d="M287.6,487h208.1v21H287.6V487z"/>
	</g>
</g>
</svg>
